HIERARCHY
ROOT Hips
{
	OFFSET 56.080399 -16.726116 96.235199
	CHANNELS 6 Xposition Yposition Zposition Xrotation Yrotation Zrotation
	JOINT spine
	{
		OFFSET 0.000000 -0.467661 8.132492
		CHANNELS 3 Xrotation Yrotation Zrotation
		JOINT spine1
		{
			OFFSET 0.000000 -0.000002 10.349800
			CHANNELS 3 Xrotation Yrotation Zrotation
			JOINT spine2
			{
				OFFSET 0.000000 -0.000002 9.916992
				CHANNELS 3 Xrotation Yrotation Zrotation
				JOINT Neck
				{
					OFFSET 0.000000 -1.213903 25.461006
					CHANNELS 3 Xrotation Yrotation Zrotation
					JOINT Head
					{
						OFFSET 0.000000 0.000000 7.692444
						CHANNELS 3 Xrotation Yrotation Zrotation
						End Site
						{
							OFFSET 0.000000 6.140626 18.619995
						}
					}
				}
				JOINT RightShoulder
				{
					OFFSET -4.175751 0.581444 10.709602
					CHANNELS 3 Xrotation Yrotation Zrotation
					JOINT RightArm
					{
						OFFSET 0.000000 -0.000002 14.046600
						CHANNELS 3 Xrotation Yrotation Zrotation
						JOINT RightArmRoll
						{
							OFFSET 0.000000 0.000000 7.090988
							CHANNELS 3 Xrotation Yrotation Zrotation
							JOINT RightForeArm
							{
								OFFSET 0.000000 -0.000004 20.653503
								CHANNELS 3 Xrotation Yrotation Zrotation
								JOINT RightForeArmRoll
								{
									OFFSET 0.000000 -0.000002 7.957184
									CHANNELS 3 Xrotation Yrotation Zrotation
									JOINT RightHand
									{
										OFFSET 0.000000 -0.000002 15.968307
										CHANNELS 3 Xrotation Yrotation Zrotation
										End Site
										{
											OFFSET 0.000000 0.000000 0.100006
										}
									}
								}
							}
						}
					}
				}
				JOINT LeftShoulder
				{
					OFFSET 4.175751 0.581444 10.709602
					CHANNELS 3 Xrotation Yrotation Zrotation
					JOINT LeftArm
					{
						OFFSET 0.000000 -0.000002 14.046600
						CHANNELS 3 Xrotation Yrotation Zrotation
						JOINT LeftArmRoll
						{
							OFFSET 0.000000 0.000000 7.090973
							CHANNELS 3 Xrotation Yrotation Zrotation
							JOINT LeftForeArm
							{
								OFFSET 0.000000 -0.000004 20.653503
								CHANNELS 3 Xrotation Yrotation Zrotation
								JOINT LeftForeArmRoll
								{
									OFFSET 0.000000 -0.000002 7.957184
									CHANNELS 3 Xrotation Yrotation Zrotation
									JOINT LeftHand
									{
										OFFSET 0.000000 -0.000002 15.968292
										CHANNELS 3 Xrotation Yrotation Zrotation
										End Site
										{
											OFFSET 0.000000 0.000000 0.100006
										}
									}
								}
							}
						}
					}
				}
			}
		}
	}
	JOINT RightUpLeg
	{
		OFFSET -7.208340 1.108840 -1.321823
		CHANNELS 3 Xrotation Yrotation Zrotation
		JOINT RightUpLegRoll
		{
			OFFSET 0.000000 -0.000003 18.723801
			CHANNELS 3 Xrotation Yrotation Zrotation
			JOINT RightLeg
			{
				OFFSET 0.000000 0.000004 -23.186600
				CHANNELS 3 Xrotation Yrotation Zrotation
				JOINT RightLegRoll
				{
					OFFSET 0.000000 -0.000004 23.262398
					CHANNELS 3 Xrotation Yrotation Zrotation
					JOINT RightFoot
					{
						OFFSET 0.000000 -0.000004 19.362099
						CHANNELS 3 Xrotation Yrotation Zrotation
						JOINT RightToeBase
						{
							OFFSET 0.000000 -0.000002 16.185699
							CHANNELS 3 Xrotation Yrotation Zrotation
							End Site
							{
								OFFSET 0.006859 0.903520 7.838623
							}
						}
					}
				}
			}
		}
	}
	JOINT LeftUpLeg
	{
		OFFSET 7.208340 1.108840 -1.321823
		CHANNELS 3 Xrotation Yrotation Zrotation
		JOINT LeftUpLegRoll
		{
			OFFSET 0.000000 -0.000003 18.723900
			CHANNELS 3 Xrotation Yrotation Zrotation
			JOINT LeftLeg
			{
				OFFSET 0.000000 -0.000004 23.186501
				CHANNELS 3 Xrotation Yrotation Zrotation
				JOINT LeftLegRoll
				{
					OFFSET 0.000000 -0.000004 23.477493
					CHANNELS 3 Xrotation Yrotation Zrotation
					JOINT LeftFoot
					{
						OFFSET 0.000000 -0.000004 19.147003
						CHANNELS 3 Xrotation Yrotation Zrotation
						JOINT LeftToeBase
						{
							OFFSET 0.000000 -0.000002 16.185699
							CHANNELS 3 Xrotation Yrotation Zrotation
							End Site
							{
								OFFSET -0.030746 0.903520 7.838623
							}
						}
					}
				}
			}
		}
	}
}
MOTION
Frames: 4
Frame Time: 0.041667
51.508701 -19.937811 82.183189 6.063266 0.562989 3.084930 1.332279 -0.539491 -0.036199 6.667368 -1.079441 -0.054498 8.312598 -1.080015 -0.041562 -11.015423 4.443654 -5.851271 -8.515759 -1.153741 -6.971069 -18.762704 -55.038136 -22.180558 -50.414781 -134.611281 -31.119308 0.000000 -0.000000 -0.000003 -0.137520 -5.215575 -0.829215 0.000001 0.000006 -3.065140 -5.000220 -7.998831 0.000133 -2.895334 61.294773 3.674593 -55.130230 129.549933 45.989057 -0.000002 0.000002 0.000006 0.044529 7.735166 1.689629 0.000008 -0.000003 3.108989 -5.000221 7.998879 -0.000153 -44.024971 -175.404107 1.912491 -179.999991 0.000005 -1.255002 107.446382 1.086037 -1.060645 0.000003 0.000000 3.052590 90.341915 6.012415 3.973144 30.329943 -7.075477 3.555111 -45.836167 171.183228 -1.776289 -0.000005 -0.000004 -1.190190 -72.415175 -1.064600 0.258268 0.000000 -0.000003 -3.433511 88.573149 -6.041639 -3.913004 28.449102 7.143606 -4.281104 
51.515900 -19.937614 82.056381 6.004491 0.552667 3.121819 1.343550 -0.539570 -0.035180 6.689930 -1.079560 -0.052352 8.335153 -1.080111 -0.039415 -11.003850 4.474255 -5.875120 -8.459970 -1.190476 -7.001405 -18.604337 -54.976999 -21.988776 -50.524019 -135.117671 -31.144956 -0.000000 -0.000000 -0.000003 -0.085590 -5.008623 -0.820899 0.000001 0.000006 -3.066008 -5.000221 -7.998830 0.000135 -2.866627 61.220338 3.633811 -55.307942 130.161207 46.273975 -0.000000 0.000002 0.000006 0.054417 7.673455 1.692066 0.000008 -0.000003 3.109409 -5.000220 7.998881 -0.000153 -44.018401 -175.359465 1.960003 -179.999991 0.000005 -1.256995 107.305673 1.093076 -1.057347 0.000003 0.000001 3.072280 90.549792 6.007372 3.994352 30.207072 -7.083550 3.528021 -45.892393 171.176302 -1.842871 -0.000005 -0.000004 -1.193950 -72.582412 -1.049887 0.275184 0.000000 -0.000002 -3.442759 88.674174 -6.040378 -3.914759 28.426081 7.146712 -4.250787 
51.530800 -19.897820 81.951691 5.945301 0.545915 3.153589 1.354071 -0.540247 -0.034092 6.710990 -1.080884 -0.050058 8.356206 -1.081409 -0.037104 -10.989978 4.505434 -5.897317 -8.410184 -1.231218 -7.029960 -18.441849 -54.910438 -21.791580 -50.627063 -135.610005 -31.183365 0.000000 -0.000001 -0.000002 -0.038688 -4.821740 -0.813429 0.000002 0.000006 -3.066690 -5.000220 -7.998831 0.000135 -2.852687 61.146879 3.610336 -55.472464 130.752101 46.564313 -0.000002 0.000003 0.000005 0.063397 7.625755 1.690049 0.000008 -0.000003 3.109259 -5.000219 7.998881 -0.000153 -44.013237 -175.322883 2.003457 -179.999991 0.000005 -1.259004 107.165818 1.100510 -1.054099 0.000003 0.000000 3.090840 90.742280 6.002842 4.014579 30.098376 -7.090744 3.502982 -45.942670 171.172040 -1.898485 -0.000000 -0.000005 -1.197900 -72.746583 -1.042161 0.285443 0.000002 -0.000002 -3.454159 88.777405 -6.038569 -3.918886 28.403552 7.149718 -4.220825 
51.525299 -19.865913 81.864395 5.886596 0.543413 3.179863 1.363661 -0.541581 -0.032978 6.730177 -1.083513 -0.047699 8.375397 -1.084007 -0.034713 -10.973294 4.536088 -5.917794 -8.369268 -1.275711 -7.056377 -18.276164 -54.839811 -21.590127 -50.727200 -136.086014 -31.237747 0.000001 -0.000000 -0.000002 -0.000661 -4.656040 -0.806910 0.000002 0.000005 -3.067129 -5.000221 -7.998830 0.000134 -2.853437 61.075114 3.604177 -55.624108 131.318897 46.860067 -0.000001 0.000002 0.000005 0.070789 7.592872 1.683468 0.000008 -0.000002 3.108490 -5.000220 7.998880 -0.000153 -44.012581 -175.296791 2.042833 -179.999991 0.000005 -1.260998 107.023566 1.109296 -1.050028 0.000003 0.000000 3.108299 90.916416 5.998648 4.034588 30.007282 -7.096803 3.481181 -45.988972 171.171466 -1.940965 -0.000006 -0.000004 -1.202120 -72.909947 -1.043037 0.287435 0.000001 -0.000002 -3.468271 88.882802 -6.036101 -3.926008 28.382136 7.152531 -4.192085 
